# xmcd
# 
# Track frame offsets:
#	150
#	10980
#	22437
#	32717
#	43426
#	54350
#	70846
#	84456
#	96728
#
# Disc length: 1440 seconds
#
# Revision: 1
# Processed by: cddbd v1.4PL0 Copyright (c) Steve Scherf et al.
# Submitted via: Audio-CD-Archiv 2.10.438
#
DISCID=7f059e09
DTITLE=Dean Martin - Dean Martin Deluxe
DYEAR=1900
DGENRE=blues
TTITLE0=I can't Believe That You're In Love
TTITLE1=True Love
TTITLE2=Just In Time
TTITLE3=Someday
TTITLE4=Please Don't Talk About Me....
TTITLE5=On The Street Where You Live
TTITLE6=Until The Real Thing Comes...
TTITLE7=I've Grown Accustomed To here
TTITLE8=Heaven Can Wait
EXTD=
EXTT0=
EXTT1=
EXTT2=
EXTT3=
EXTT4=
EXTT5=
EXTT6=
EXTT7=
EXTT8=
PLAYORDER=
